%FSLAX25Y25*%
%MOIN*%
G70*
G01*
G75*
G04 Layer_Color=32896*
%ADD10C,0.11811*%
%ADD11C,0.18110*%
%ADD12C,0.05906*%
%ADD13R,0.03937X0.03543*%
%ADD14C,0.01000*%
%ADD15C,0.00787*%
%ADD16C,0.00700*%
%ADD17C,0.12611*%
%ADD18C,0.18910*%
%ADD19C,0.06706*%
%ADD20R,0.04737X0.04343*%
D15*
X56532Y44000D02*
X60469D01*
X56532Y76500D02*
X60469D01*
X56532Y96500D02*
X60469D01*
X56532Y114000D02*
X60469D01*
X56532Y126500D02*
X60469D01*
X56532Y144000D02*
X60469D01*
X56532Y156500D02*
X60469D01*
X56532Y174000D02*
X60469D01*
X56532Y186500D02*
X60469D01*
X56532Y204000D02*
X60469D01*
X56532Y216500D02*
X60469D01*
X56532Y234000D02*
X60469D01*
X56532Y246500D02*
X60469D01*
X56532Y264000D02*
X60469D01*
X56532Y276500D02*
X60469D01*
X56532Y294000D02*
X60469D01*
X56532Y306500D02*
X60469D01*
X56532Y324000D02*
X60469D01*
D16*
X70500Y45999D02*
Y43000D01*
Y45999D02*
X69215D01*
X68786Y45856D01*
X68643Y45714D01*
X68500Y45428D01*
Y45142D01*
X68643Y44857D01*
X68786Y44714D01*
X69215Y44571D01*
X70500D01*
X69500D02*
X68500Y43000D01*
X67829Y45428D02*
X67544Y45571D01*
X67115Y45999D01*
Y43000D01*
X64916Y45999D02*
X65344Y45856D01*
X65487Y45571D01*
Y45285D01*
X65344Y45000D01*
X65058Y44857D01*
X64487Y44714D01*
X64059Y44571D01*
X63773Y44285D01*
X63630Y44000D01*
Y43571D01*
X63773Y43286D01*
X63916Y43143D01*
X64344Y43000D01*
X64916D01*
X65344Y43143D01*
X65487Y43286D01*
X65630Y43571D01*
Y44000D01*
X65487Y44285D01*
X65201Y44571D01*
X64773Y44714D01*
X64201Y44857D01*
X63916Y45000D01*
X63773Y45285D01*
Y45571D01*
X63916Y45856D01*
X64344Y45999D01*
X64916D01*
X70000Y77999D02*
Y75000D01*
Y77999D02*
X68715D01*
X68286Y77856D01*
X68143Y77714D01*
X68000Y77428D01*
Y77142D01*
X68143Y76857D01*
X68286Y76714D01*
X68715Y76571D01*
X70000D01*
X69000D02*
X68000Y75000D01*
X67329Y77428D02*
X67044Y77571D01*
X66615Y77999D01*
Y75000D01*
X63130Y77999D02*
X64558Y75000D01*
X65130Y77999D02*
X63130D01*
X69500Y97999D02*
Y95000D01*
Y97999D02*
X68215D01*
X67786Y97856D01*
X67643Y97714D01*
X67500Y97428D01*
Y97142D01*
X67643Y96857D01*
X67786Y96714D01*
X68215Y96571D01*
X69500D01*
X68500D02*
X67500Y95000D01*
X66829Y97428D02*
X66544Y97571D01*
X66115Y97999D01*
Y95000D01*
X62916Y97571D02*
X63059Y97856D01*
X63487Y97999D01*
X63773D01*
X64201Y97856D01*
X64487Y97428D01*
X64630Y96714D01*
Y96000D01*
X64487Y95429D01*
X64201Y95143D01*
X63773Y95000D01*
X63630D01*
X63201Y95143D01*
X62916Y95429D01*
X62773Y95857D01*
Y96000D01*
X62916Y96428D01*
X63201Y96714D01*
X63630Y96857D01*
X63773D01*
X64201Y96714D01*
X64487Y96428D01*
X64630Y96000D01*
X70000Y114999D02*
Y112000D01*
Y114999D02*
X68715D01*
X68286Y114857D01*
X68143Y114714D01*
X68000Y114428D01*
Y114142D01*
X68143Y113857D01*
X68286Y113714D01*
X68715Y113571D01*
X70000D01*
X69000D02*
X68000Y112000D01*
X67329Y114428D02*
X67044Y114571D01*
X66615Y114999D01*
Y112000D01*
X63416Y114999D02*
X64844D01*
X64987Y113714D01*
X64844Y113857D01*
X64416Y114000D01*
X63987D01*
X63559Y113857D01*
X63273Y113571D01*
X63130Y113143D01*
Y112857D01*
X63273Y112428D01*
X63559Y112143D01*
X63987Y112000D01*
X64416D01*
X64844Y112143D01*
X64987Y112286D01*
X65130Y112571D01*
X70000Y127999D02*
Y125000D01*
Y127999D02*
X68715D01*
X68286Y127857D01*
X68143Y127714D01*
X68000Y127428D01*
Y127142D01*
X68143Y126857D01*
X68286Y126714D01*
X68715Y126571D01*
X70000D01*
X69000D02*
X68000Y125000D01*
X67329Y127428D02*
X67044Y127571D01*
X66615Y127999D01*
Y125000D01*
X63701Y127999D02*
X65130Y126000D01*
X62987D01*
X63701Y127999D02*
Y125000D01*
X70000Y145499D02*
Y142500D01*
Y145499D02*
X68715D01*
X68286Y145357D01*
X68143Y145214D01*
X68000Y144928D01*
Y144642D01*
X68143Y144357D01*
X68286Y144214D01*
X68715Y144071D01*
X70000D01*
X69000D02*
X68000Y142500D01*
X67329Y144928D02*
X67044Y145071D01*
X66615Y145499D01*
Y142500D01*
X64844Y145499D02*
X63273D01*
X64130Y144357D01*
X63701D01*
X63416Y144214D01*
X63273Y144071D01*
X63130Y143643D01*
Y143357D01*
X63273Y142929D01*
X63559Y142643D01*
X63987Y142500D01*
X64416D01*
X64844Y142643D01*
X64987Y142786D01*
X65130Y143071D01*
X69500Y157999D02*
Y155000D01*
Y157999D02*
X68215D01*
X67786Y157857D01*
X67643Y157714D01*
X67500Y157428D01*
Y157142D01*
X67643Y156857D01*
X67786Y156714D01*
X68215Y156571D01*
X69500D01*
X68500D02*
X67500Y155000D01*
X66829Y157428D02*
X66544Y157571D01*
X66115Y157999D01*
Y155000D01*
X64487Y157285D02*
Y157428D01*
X64344Y157714D01*
X64201Y157857D01*
X63915Y157999D01*
X63344D01*
X63059Y157857D01*
X62916Y157714D01*
X62773Y157428D01*
Y157142D01*
X62916Y156857D01*
X63201Y156428D01*
X64630Y155000D01*
X62630D01*
X69000Y175499D02*
Y172500D01*
Y175499D02*
X67715D01*
X67286Y175356D01*
X67143Y175214D01*
X67000Y174928D01*
Y174642D01*
X67143Y174357D01*
X67286Y174214D01*
X67715Y174071D01*
X69000D01*
X68000D02*
X67000Y172500D01*
X66329Y174928D02*
X66044Y175071D01*
X65615Y175499D01*
Y172500D01*
X64130Y174928D02*
X63844Y175071D01*
X63415Y175499D01*
Y172500D01*
X70000Y187999D02*
Y185000D01*
Y187999D02*
X68715D01*
X68286Y187856D01*
X68143Y187714D01*
X68000Y187428D01*
Y187142D01*
X68143Y186857D01*
X68286Y186714D01*
X68715Y186571D01*
X70000D01*
X69000D02*
X68000Y185000D01*
X67329Y187428D02*
X67044Y187571D01*
X66615Y187999D01*
Y185000D01*
X64273Y187999D02*
X64701Y187856D01*
X64987Y187428D01*
X65130Y186714D01*
Y186285D01*
X64987Y185571D01*
X64701Y185143D01*
X64273Y185000D01*
X63987D01*
X63559Y185143D01*
X63273Y185571D01*
X63130Y186285D01*
Y186714D01*
X63273Y187428D01*
X63559Y187856D01*
X63987Y187999D01*
X64273D01*
X67500Y205499D02*
Y202500D01*
Y205499D02*
X66215D01*
X65786Y205357D01*
X65643Y205214D01*
X65500Y204928D01*
Y204642D01*
X65643Y204357D01*
X65786Y204214D01*
X66215Y204071D01*
X67500D01*
X66500D02*
X65500Y202500D01*
X62972Y204500D02*
X63115Y204071D01*
X63401Y203785D01*
X63829Y203643D01*
X63972D01*
X64401Y203785D01*
X64686Y204071D01*
X64829Y204500D01*
Y204642D01*
X64686Y205071D01*
X64401Y205357D01*
X63972Y205499D01*
X63829D01*
X63401Y205357D01*
X63115Y205071D01*
X62972Y204500D01*
Y203785D01*
X63115Y203071D01*
X63401Y202643D01*
X63829Y202500D01*
X64115D01*
X64543Y202643D01*
X64686Y202928D01*
X67500Y217999D02*
Y215000D01*
Y217999D02*
X66215D01*
X65786Y217857D01*
X65643Y217714D01*
X65500Y217428D01*
Y217142D01*
X65643Y216857D01*
X65786Y216714D01*
X66215Y216571D01*
X67500D01*
X66500D02*
X65500Y215000D01*
X64115Y217999D02*
X64543Y217857D01*
X64686Y217571D01*
Y217285D01*
X64543Y217000D01*
X64258Y216857D01*
X63687Y216714D01*
X63258Y216571D01*
X62972Y216285D01*
X62830Y216000D01*
Y215571D01*
X62972Y215286D01*
X63115Y215143D01*
X63544Y215000D01*
X64115D01*
X64543Y215143D01*
X64686Y215286D01*
X64829Y215571D01*
Y216000D01*
X64686Y216285D01*
X64401Y216571D01*
X63972Y216714D01*
X63401Y216857D01*
X63115Y217000D01*
X62972Y217285D01*
Y217571D01*
X63115Y217857D01*
X63544Y217999D01*
X64115D01*
X67500Y235499D02*
Y232500D01*
Y235499D02*
X66215D01*
X65786Y235356D01*
X65643Y235214D01*
X65500Y234928D01*
Y234642D01*
X65643Y234357D01*
X65786Y234214D01*
X66215Y234071D01*
X67500D01*
X66500D02*
X65500Y232500D01*
X62830Y235499D02*
X64258Y232500D01*
X64829Y235499D02*
X62830D01*
X67500Y247999D02*
Y245000D01*
Y247999D02*
X66215D01*
X65786Y247856D01*
X65643Y247714D01*
X65500Y247428D01*
Y247142D01*
X65643Y246857D01*
X65786Y246714D01*
X66215Y246571D01*
X67500D01*
X66500D02*
X65500Y245000D01*
X63115Y247571D02*
X63258Y247856D01*
X63687Y247999D01*
X63972D01*
X64401Y247856D01*
X64686Y247428D01*
X64829Y246714D01*
Y246000D01*
X64686Y245428D01*
X64401Y245143D01*
X63972Y245000D01*
X63829D01*
X63401Y245143D01*
X63115Y245428D01*
X62972Y245857D01*
Y246000D01*
X63115Y246428D01*
X63401Y246714D01*
X63829Y246857D01*
X63972D01*
X64401Y246714D01*
X64686Y246428D01*
X64829Y246000D01*
X67500Y265499D02*
Y262500D01*
Y265499D02*
X66215D01*
X65786Y265356D01*
X65643Y265214D01*
X65500Y264928D01*
Y264642D01*
X65643Y264357D01*
X65786Y264214D01*
X66215Y264071D01*
X67500D01*
X66500D02*
X65500Y262500D01*
X63115Y265499D02*
X64543D01*
X64686Y264214D01*
X64543Y264357D01*
X64115Y264500D01*
X63687D01*
X63258Y264357D01*
X62972Y264071D01*
X62830Y263643D01*
Y263357D01*
X62972Y262929D01*
X63258Y262643D01*
X63687Y262500D01*
X64115D01*
X64543Y262643D01*
X64686Y262786D01*
X64829Y263071D01*
X67500Y277999D02*
Y275000D01*
Y277999D02*
X66215D01*
X65786Y277856D01*
X65643Y277714D01*
X65500Y277428D01*
Y277142D01*
X65643Y276857D01*
X65786Y276714D01*
X66215Y276571D01*
X67500D01*
X66500D02*
X65500Y275000D01*
X63401Y277999D02*
X64829Y276000D01*
X62687D01*
X63401Y277999D02*
Y275000D01*
X67500Y295499D02*
Y292500D01*
Y295499D02*
X66215D01*
X65786Y295356D01*
X65643Y295214D01*
X65500Y294928D01*
Y294642D01*
X65643Y294357D01*
X65786Y294214D01*
X66215Y294071D01*
X67500D01*
X66500D02*
X65500Y292500D01*
X64543Y295499D02*
X62972D01*
X63829Y294357D01*
X63401D01*
X63115Y294214D01*
X62972Y294071D01*
X62830Y293643D01*
Y293357D01*
X62972Y292929D01*
X63258Y292643D01*
X63687Y292500D01*
X64115D01*
X64543Y292643D01*
X64686Y292786D01*
X64829Y293071D01*
X67500Y307999D02*
Y305000D01*
Y307999D02*
X66215D01*
X65786Y307856D01*
X65643Y307714D01*
X65500Y307428D01*
Y307142D01*
X65643Y306857D01*
X65786Y306714D01*
X66215Y306571D01*
X67500D01*
X66500D02*
X65500Y305000D01*
X64686Y307285D02*
Y307428D01*
X64543Y307714D01*
X64401Y307856D01*
X64115Y307999D01*
X63544D01*
X63258Y307856D01*
X63115Y307714D01*
X62972Y307428D01*
Y307142D01*
X63115Y306857D01*
X63401Y306428D01*
X64829Y305000D01*
X62830D01*
X67000Y325499D02*
Y322500D01*
Y325499D02*
X65715D01*
X65286Y325357D01*
X65143Y325214D01*
X65000Y324928D01*
Y324642D01*
X65143Y324357D01*
X65286Y324214D01*
X65715Y324071D01*
X67000D01*
X66000D02*
X65000Y322500D01*
X64329Y324928D02*
X64043Y325071D01*
X63615Y325499D01*
Y322500D01*
M02*
