%FSLAX25Y25*%
%MOIN*%
G70*
G01*
G75*
G04 Layer_Color=65535*
%ADD10C,0.11811*%
%ADD11C,0.18110*%
%ADD12C,0.05906*%
%ADD13R,0.03937X0.03543*%
%ADD14C,0.01000*%
%ADD15C,0.00787*%
%ADD16C,0.00700*%
D14*
X27500Y11500D02*
X30300Y8700D01*
X65936D01*
X82335Y52908D02*
X88333D01*
X85477D02*
X84620Y53765D01*
X84334Y54337D01*
Y55193D01*
X84620Y55765D01*
X85477Y56050D01*
X88333D01*
X82335Y58478D02*
X87191D01*
X88048Y58764D01*
X88333Y59335D01*
Y59907D01*
X84334Y57622D02*
Y59621D01*
X82335Y61621D02*
X87191D01*
X88048Y61906D01*
X88333Y62478D01*
Y63049D01*
X84334Y60764D02*
Y62763D01*
Y63906D02*
X90333D01*
X85191D02*
X84620Y64477D01*
X84334Y65048D01*
Y65905D01*
X84620Y66477D01*
X85191Y67048D01*
X86048Y67334D01*
X86619D01*
X87476Y67048D01*
X88048Y66477D01*
X88333Y65905D01*
Y65048D01*
X88048Y64477D01*
X87476Y63906D01*
X84334Y68905D02*
X84620Y68619D01*
X84905Y68905D01*
X84620Y69190D01*
X84334Y68905D01*
X87762D02*
X88048Y68619D01*
X88333Y68905D01*
X88048Y69190D01*
X87762Y68905D01*
X89190Y70504D02*
X82335Y74504D01*
X89190Y74904D02*
X82335Y78903D01*
X84334Y80731D02*
X84620Y80159D01*
X85191Y79588D01*
X86048Y79303D01*
X86619D01*
X87476Y79588D01*
X88048Y80159D01*
X88333Y80731D01*
Y81588D01*
X88048Y82159D01*
X87476Y82730D01*
X86619Y83016D01*
X86048D01*
X85191Y82730D01*
X84620Y82159D01*
X84334Y81588D01*
Y80731D01*
X82335Y84330D02*
X88333D01*
X85477D02*
X84620Y85187D01*
X84334Y85758D01*
Y86615D01*
X84620Y87187D01*
X85477Y87472D01*
X88333D01*
X84334Y89043D02*
X88333Y90186D01*
X84334Y91329D02*
X88333Y90186D01*
X84334Y91329D02*
X88333Y92471D01*
X84334Y93614D02*
X88333Y92471D01*
X84334Y95013D02*
X88333D01*
X86048D02*
X85191Y95299D01*
X84620Y95870D01*
X84334Y96442D01*
Y97299D01*
X87762Y98127D02*
X88048Y97841D01*
X88333Y98127D01*
X88048Y98413D01*
X87762Y98127D01*
X84334Y101155D02*
X84620Y100584D01*
X85191Y100012D01*
X86048Y99727D01*
X86619D01*
X87476Y100012D01*
X88048Y100584D01*
X88333Y101155D01*
Y102012D01*
X88048Y102583D01*
X87476Y103155D01*
X86619Y103440D01*
X86048D01*
X85191Y103155D01*
X84620Y102583D01*
X84334Y102012D01*
Y101155D01*
Y104754D02*
X88333D01*
X86048D02*
X85191Y105040D01*
X84620Y105611D01*
X84334Y106183D01*
Y107039D01*
Y111010D02*
X88905D01*
X89762Y110724D01*
X90047Y110439D01*
X90333Y109867D01*
Y109011D01*
X90047Y108439D01*
X85191Y111010D02*
X84620Y110439D01*
X84334Y109867D01*
Y109011D01*
X84620Y108439D01*
X85191Y107868D01*
X86048Y107582D01*
X86619D01*
X87476Y107868D01*
X88048Y108439D01*
X88333Y109011D01*
Y109867D01*
X88048Y110439D01*
X87476Y111010D01*
X89190Y112610D02*
X82335Y116609D01*
X83763Y121294D02*
X83192Y121008D01*
X82620Y120437D01*
X82335Y119865D01*
Y118723D01*
X82620Y118151D01*
X83192Y117580D01*
X83763Y117294D01*
X84620Y117009D01*
X86048D01*
X86905Y117294D01*
X87476Y117580D01*
X88048Y118151D01*
X88333Y118723D01*
Y119865D01*
X88048Y120437D01*
X87476Y121008D01*
X86905Y121294D01*
X82335Y126692D02*
Y122979D01*
X88333D01*
Y126692D01*
X85191Y122979D02*
Y125264D01*
X82335Y127692D02*
X88333D01*
X82335D02*
Y130263D01*
X82620Y131120D01*
X82906Y131406D01*
X83477Y131691D01*
X84049D01*
X84620Y131406D01*
X84905Y131120D01*
X85191Y130263D01*
Y127692D01*
Y129692D02*
X88333Y131691D01*
X82335Y133034D02*
X88333D01*
X82335D02*
X88333Y137033D01*
X82335D02*
X88333D01*
X82335Y140404D02*
X82620Y139832D01*
X83192Y139261D01*
X83763Y138976D01*
X84620Y138690D01*
X86048D01*
X86905Y138976D01*
X87476Y139261D01*
X88048Y139832D01*
X88333Y140404D01*
Y141546D01*
X88048Y142118D01*
X87476Y142689D01*
X86905Y142975D01*
X86048Y143260D01*
X84620D01*
X83763Y142975D01*
X83192Y142689D01*
X82620Y142118D01*
X82335Y141546D01*
Y140404D01*
Y144660D02*
X88333D01*
X82335Y148659D02*
X88333D01*
X85191Y144660D02*
Y148659D01*
X82335Y150316D02*
X88333D01*
Y153744D01*
X68488Y38511D02*
X74487D01*
Y41939D01*
X68488Y43167D02*
X68774Y43453D01*
X68488Y43739D01*
X68202Y43453D01*
X68488Y43167D01*
X70487Y43453D02*
X74487D01*
X71344Y48224D02*
X70773Y47652D01*
X70487Y47081D01*
Y46224D01*
X70773Y45653D01*
X71344Y45081D01*
X72201Y44796D01*
X72773D01*
X73630Y45081D01*
X74201Y45653D01*
X74487Y46224D01*
Y47081D01*
X74201Y47652D01*
X73630Y48224D01*
X72201Y49509D02*
Y52937D01*
X71630D01*
X71059Y52651D01*
X70773Y52365D01*
X70487Y51794D01*
Y50937D01*
X70773Y50366D01*
X71344Y49795D01*
X72201Y49509D01*
X72773D01*
X73630Y49795D01*
X74201Y50366D01*
X74487Y50937D01*
Y51794D01*
X74201Y52365D01*
X73630Y52937D01*
X70487Y54222D02*
X74487D01*
X71630D02*
X70773Y55079D01*
X70487Y55651D01*
Y56507D01*
X70773Y57079D01*
X71630Y57364D01*
X74487D01*
X71344Y62078D02*
X70773Y61792D01*
X70487Y60935D01*
Y60078D01*
X70773Y59221D01*
X71344Y58935D01*
X71916Y59221D01*
X72201Y59792D01*
X72487Y61221D01*
X72773Y61792D01*
X73344Y62078D01*
X73630D01*
X74201Y61792D01*
X74487Y60935D01*
Y60078D01*
X74201Y59221D01*
X73630Y58935D01*
X72201Y63335D02*
Y66762D01*
X71630D01*
X71059Y66477D01*
X70773Y66191D01*
X70487Y65620D01*
Y64763D01*
X70773Y64192D01*
X71344Y63620D01*
X72201Y63335D01*
X72773D01*
X73630Y63620D01*
X74201Y64192D01*
X74487Y64763D01*
Y65620D01*
X74201Y66191D01*
X73630Y66762D01*
X68488Y71476D02*
X74487D01*
X71344D02*
X70773Y70904D01*
X70487Y70333D01*
Y69476D01*
X70773Y68905D01*
X71344Y68334D01*
X72201Y68048D01*
X72773D01*
X73630Y68334D01*
X74201Y68905D01*
X74487Y69476D01*
Y70333D01*
X74201Y70904D01*
X73630Y71476D01*
X70487Y77789D02*
X73344D01*
X74201Y78074D01*
X74487Y78646D01*
Y79502D01*
X74201Y80074D01*
X73344Y80931D01*
X70487D02*
X74487D01*
X70487Y82502D02*
X74487D01*
X71630D02*
X70773Y83359D01*
X70487Y83930D01*
Y84787D01*
X70773Y85358D01*
X71630Y85644D01*
X74487D01*
X68488Y90643D02*
X74487D01*
X71344D02*
X70773Y90072D01*
X70487Y89500D01*
Y88643D01*
X70773Y88072D01*
X71344Y87501D01*
X72201Y87215D01*
X72773D01*
X73630Y87501D01*
X74201Y88072D01*
X74487Y88643D01*
Y89500D01*
X74201Y90072D01*
X73630Y90643D01*
X72201Y92243D02*
Y95670D01*
X71630D01*
X71059Y95385D01*
X70773Y95099D01*
X70487Y94528D01*
Y93671D01*
X70773Y93100D01*
X71344Y92528D01*
X72201Y92243D01*
X72773D01*
X73630Y92528D01*
X74201Y93100D01*
X74487Y93671D01*
Y94528D01*
X74201Y95099D01*
X73630Y95670D01*
X70487Y96956D02*
X74487D01*
X72201D02*
X71344Y97242D01*
X70773Y97813D01*
X70487Y98384D01*
Y99241D01*
X69916Y108782D02*
X69345Y108496D01*
X68774Y107925D01*
X68488Y107354D01*
Y106211D01*
X68774Y105640D01*
X69345Y105069D01*
X69916Y104783D01*
X70773Y104497D01*
X72201D01*
X73058Y104783D01*
X73630Y105069D01*
X74201Y105640D01*
X74487Y106211D01*
Y107354D01*
X74201Y107925D01*
X73630Y108496D01*
X73058Y108782D01*
X68488Y114181D02*
Y110467D01*
X74487D01*
Y114181D01*
X71344Y110467D02*
Y112752D01*
X68488Y115181D02*
X74487D01*
X68488D02*
Y117752D01*
X68774Y118608D01*
X69059Y118894D01*
X69630Y119180D01*
X70202D01*
X70773Y118894D01*
X71059Y118608D01*
X71344Y117752D01*
Y115181D01*
Y117180D02*
X74487Y119180D01*
X68488Y120522D02*
X74487D01*
X68488D02*
X74487Y124522D01*
X68488D02*
X74487D01*
X68488Y132605D02*
X68774Y132034D01*
X69345Y131463D01*
X69916Y131177D01*
X70773Y130892D01*
X72201D01*
X73058Y131177D01*
X73630Y131463D01*
X74201Y132034D01*
X74487Y132605D01*
Y133748D01*
X74201Y134319D01*
X73630Y134891D01*
X73058Y135176D01*
X72201Y135462D01*
X70773D01*
X69916Y135176D01*
X69345Y134891D01*
X68774Y134319D01*
X68488Y133748D01*
Y132605D01*
Y136862D02*
X74487D01*
X68488Y140861D02*
X74487D01*
X71344Y136862D02*
Y140861D01*
X68488Y142518D02*
X74487D01*
Y145945D01*
X70487Y151316D02*
X74487Y153030D01*
X70487Y154744D02*
X74487Y153030D01*
X69630Y160428D02*
X69345Y160999D01*
X68488Y161856D01*
X74487D01*
X73915Y165113D02*
X74201Y164827D01*
X74487Y165113D01*
X74201Y165398D01*
X73915Y165113D01*
X69630Y166712D02*
X69345Y167284D01*
X68488Y168141D01*
X74487D01*
X83001Y197333D02*
X88500D01*
X85882D02*
X85096Y198118D01*
X84834Y198642D01*
Y199428D01*
X85096Y199951D01*
X85882Y200213D01*
X88500D01*
X83001Y202439D02*
X87453D01*
X88238Y202701D01*
X88500Y203224D01*
Y203748D01*
X84834Y201653D02*
Y203486D01*
X83001Y205319D02*
X87453D01*
X88238Y205581D01*
X88500Y206105D01*
Y206628D01*
X84834Y204534D02*
Y206367D01*
Y207414D02*
X90333D01*
X85620D02*
X85096Y207938D01*
X84834Y208461D01*
Y209247D01*
X85096Y209771D01*
X85620Y210294D01*
X86405Y210556D01*
X86929D01*
X87714Y210294D01*
X88238Y209771D01*
X88500Y209247D01*
Y208461D01*
X88238Y207938D01*
X87714Y207414D01*
X84834Y211996D02*
X85096Y211735D01*
X85358Y211996D01*
X85096Y212258D01*
X84834Y211996D01*
X87976D02*
X88238Y211735D01*
X88500Y211996D01*
X88238Y212258D01*
X87976Y211996D01*
X89286Y213463D02*
X83001Y217128D01*
X89286Y217495D02*
X83001Y221161D01*
X84834Y222837D02*
X85096Y222313D01*
X85620Y221790D01*
X86405Y221528D01*
X86929D01*
X87714Y221790D01*
X88238Y222313D01*
X88500Y222837D01*
Y223622D01*
X88238Y224146D01*
X87714Y224670D01*
X86929Y224932D01*
X86405D01*
X85620Y224670D01*
X85096Y224146D01*
X84834Y223622D01*
Y222837D01*
X83001Y226136D02*
X88500D01*
X85882D02*
X85096Y226922D01*
X84834Y227445D01*
Y228231D01*
X85096Y228755D01*
X85882Y229016D01*
X88500D01*
X84834Y230457D02*
X88500Y231504D01*
X84834Y232551D02*
X88500Y231504D01*
X84834Y232551D02*
X88500Y233599D01*
X84834Y234646D02*
X88500Y233599D01*
X84834Y235929D02*
X88500D01*
X86405D02*
X85620Y236191D01*
X85096Y236715D01*
X84834Y237239D01*
Y238024D01*
X87976Y238783D02*
X88238Y238522D01*
X88500Y238783D01*
X88238Y239045D01*
X87976Y238783D01*
X84834Y241559D02*
X85096Y241035D01*
X85620Y240512D01*
X86405Y240250D01*
X86929D01*
X87714Y240512D01*
X88238Y241035D01*
X88500Y241559D01*
Y242345D01*
X88238Y242868D01*
X87714Y243392D01*
X86929Y243654D01*
X86405D01*
X85620Y243392D01*
X85096Y242868D01*
X84834Y242345D01*
Y241559D01*
Y244858D02*
X88500D01*
X86405D02*
X85620Y245120D01*
X85096Y245644D01*
X84834Y246168D01*
Y246953D01*
Y250593D02*
X89024D01*
X89809Y250331D01*
X90071Y250069D01*
X90333Y249545D01*
Y248760D01*
X90071Y248236D01*
X85620Y250593D02*
X85096Y250069D01*
X84834Y249545D01*
Y248760D01*
X85096Y248236D01*
X85620Y247712D01*
X86405Y247451D01*
X86929D01*
X87714Y247712D01*
X88238Y248236D01*
X88500Y248760D01*
Y249545D01*
X88238Y250069D01*
X87714Y250593D01*
X89286Y252059D02*
X83001Y255725D01*
X84834Y256092D02*
X90333D01*
X85620D02*
X85096Y256615D01*
X84834Y257139D01*
Y257925D01*
X85096Y258448D01*
X85620Y258972D01*
X86405Y259234D01*
X86929D01*
X87714Y258972D01*
X88238Y258448D01*
X88500Y257925D01*
Y257139D01*
X88238Y256615D01*
X87714Y256092D01*
X84834Y260412D02*
X88500D01*
X86405D02*
X85620Y260674D01*
X85096Y261198D01*
X84834Y261721D01*
Y262507D01*
Y264314D02*
X85096Y263790D01*
X85620Y263266D01*
X86405Y263004D01*
X86929D01*
X87714Y263266D01*
X88238Y263790D01*
X88500Y264314D01*
Y265099D01*
X88238Y265623D01*
X87714Y266147D01*
X86929Y266408D01*
X86405D01*
X85620Y266147D01*
X85096Y265623D01*
X84834Y265099D01*
Y264314D01*
X83001Y268660D02*
X83263Y268922D01*
X83001Y269184D01*
X82739Y268922D01*
X83001Y268660D01*
X84834Y268922D02*
X89286D01*
X90071Y268660D01*
X90333Y268137D01*
Y267613D01*
X86405Y270205D02*
Y273347D01*
X85882D01*
X85358Y273086D01*
X85096Y272824D01*
X84834Y272300D01*
Y271515D01*
X85096Y270991D01*
X85620Y270467D01*
X86405Y270205D01*
X86929D01*
X87714Y270467D01*
X88238Y270991D01*
X88500Y271515D01*
Y272300D01*
X88238Y272824D01*
X87714Y273347D01*
X85620Y277668D02*
X85096Y277144D01*
X84834Y276621D01*
Y275835D01*
X85096Y275311D01*
X85620Y274788D01*
X86405Y274526D01*
X86929D01*
X87714Y274788D01*
X88238Y275311D01*
X88500Y275835D01*
Y276621D01*
X88238Y277144D01*
X87714Y277668D01*
X83001Y279632D02*
X87453D01*
X88238Y279894D01*
X88500Y280417D01*
Y280941D01*
X84834Y278846D02*
Y280679D01*
X85620Y284607D02*
X85096Y284345D01*
X84834Y283560D01*
Y282774D01*
X85096Y281989D01*
X85620Y281727D01*
X86143Y281989D01*
X86405Y282512D01*
X86667Y283821D01*
X86929Y284345D01*
X87453Y284607D01*
X87714D01*
X88238Y284345D01*
X88500Y283560D01*
Y282774D01*
X88238Y281989D01*
X87714Y281727D01*
X89286Y285759D02*
X83001Y289425D01*
X85620Y292672D02*
X85096Y292410D01*
X84834Y291624D01*
Y290839D01*
X85096Y290053D01*
X85620Y289792D01*
X86143Y290053D01*
X86405Y290577D01*
X86667Y291886D01*
X86929Y292410D01*
X87453Y292672D01*
X87714D01*
X88238Y292410D01*
X88500Y291624D01*
Y290839D01*
X88238Y290053D01*
X87714Y289792D01*
X84834Y293824D02*
X88500Y295395D01*
X84834Y296966D02*
X88500Y295395D01*
X86405Y297856D02*
Y300999D01*
X85882D01*
X85358Y300737D01*
X85096Y300475D01*
X84834Y299951D01*
Y299166D01*
X85096Y298642D01*
X85620Y298118D01*
X86405Y297856D01*
X86929D01*
X87714Y298118D01*
X88238Y298642D01*
X88500Y299166D01*
Y299951D01*
X88238Y300475D01*
X87714Y300999D01*
X85620Y305319D02*
X85096Y304796D01*
X84834Y304272D01*
Y303486D01*
X85096Y302963D01*
X85620Y302439D01*
X86405Y302177D01*
X86929D01*
X87714Y302439D01*
X88238Y302963D01*
X88500Y303486D01*
Y304272D01*
X88238Y304796D01*
X87714Y305319D01*
X68202Y217000D02*
X75201Y219666D01*
X68202Y222332D02*
X75201Y219666D01*
X68202Y223232D02*
X75201D01*
X68202D02*
X75201Y225898D01*
X68202Y228564D02*
X75201Y225898D01*
X68202Y228564D02*
X75201D01*
X68202Y234896D02*
Y230564D01*
X75201D01*
Y234896D01*
X71535Y230564D02*
Y233230D01*
X71868Y241561D02*
Y244561D01*
X71535Y245561D01*
X71202Y245894D01*
X70535Y246227D01*
X69535D01*
X68869Y245894D01*
X68536Y245561D01*
X68202Y244561D01*
Y241561D01*
X75201D01*
X69868Y248127D02*
X69535D01*
X68869Y248460D01*
X68536Y248793D01*
X68202Y249460D01*
Y250793D01*
X68536Y251459D01*
X68869Y251793D01*
X69535Y252126D01*
X70202D01*
X70868Y251793D01*
X71868Y251126D01*
X75201Y247793D01*
Y252459D01*
X68202Y260524D02*
X73868D01*
X74867Y260857D01*
X75201Y261524D01*
Y262190D01*
X70535Y259524D02*
Y261857D01*
X72535Y263190D02*
Y267189D01*
X71868D01*
X71202Y266856D01*
X70868Y266523D01*
X70535Y265856D01*
Y264856D01*
X70868Y264190D01*
X71535Y263523D01*
X72535Y263190D01*
X73201D01*
X74201Y263523D01*
X74867Y264190D01*
X75201Y264856D01*
Y265856D01*
X74867Y266523D01*
X74201Y267189D01*
X71535Y272355D02*
X70868Y272022D01*
X70535Y271022D01*
Y270022D01*
X70868Y269022D01*
X71535Y268689D01*
X72201Y269022D01*
X72535Y269689D01*
X72868Y271355D01*
X73201Y272022D01*
X73868Y272355D01*
X74201D01*
X74867Y272022D01*
X75201Y271022D01*
Y270022D01*
X74867Y269022D01*
X74201Y268689D01*
X68202Y274821D02*
X73868D01*
X74867Y275154D01*
X75201Y275821D01*
Y276487D01*
X70535Y273821D02*
Y276154D01*
X72535Y277487D02*
Y281486D01*
X71868D01*
X71202Y281153D01*
X70868Y280820D01*
X70535Y280153D01*
Y279153D01*
X70868Y278487D01*
X71535Y277820D01*
X72535Y277487D01*
X73201D01*
X74201Y277820D01*
X74867Y278487D01*
X75201Y279153D01*
Y280153D01*
X74867Y280820D01*
X74201Y281486D01*
X70535Y282986D02*
X75201D01*
X72535D02*
X71535Y283319D01*
X70868Y283986D01*
X70535Y284652D01*
Y285652D01*
D15*
X-5118Y359646D02*
G03*
X-11417Y353347I0J-6299D01*
G01*
Y-3347D02*
G03*
X-5118Y-9646I6299J0D01*
G01*
X25197Y13976D02*
X48425D01*
X25197Y-9646D02*
Y359646D01*
Y337992D02*
X48425D01*
Y13976D02*
Y337992D01*
X4528Y-9646D02*
X25197D01*
X-11417Y-3347D02*
Y4921D01*
X-16142Y9646D02*
X-11417Y4921D01*
X-16142Y9646D02*
Y11811D01*
X-49606Y8071D02*
X-14567D01*
X-49606D02*
Y341929D01*
X-14567D01*
X-16142Y337992D02*
Y340354D01*
X-11417Y345079D01*
Y353347D01*
X4528Y359646D02*
X25197D01*
X11592Y350000D02*
X25197D01*
X-49606Y12008D02*
X-4921D01*
Y337992D01*
X-49606D02*
X-4921D01*
X11592Y0D02*
X25197D01*
X51000Y329000D02*
X52574D01*
X51787D01*
Y333723D01*
X51000Y332936D01*
Y21436D02*
X51787Y22223D01*
X53361D01*
X54149Y21436D01*
Y20649D01*
X53361Y19861D01*
X52574D01*
X53361D01*
X54149Y19074D01*
Y18287D01*
X53361Y17500D01*
X51787D01*
X51000Y18287D01*
X58872Y17500D02*
X55723D01*
X58872Y20649D01*
Y21436D01*
X58084Y22223D01*
X56510D01*
X55723Y21436D01*
X54149Y292223D02*
X51000D01*
Y289861D01*
X52574Y290649D01*
X53361D01*
X54149Y289861D01*
Y288287D01*
X53361Y287500D01*
X51787D01*
X51000Y288287D01*
Y238000D02*
X52574D01*
X51787D01*
Y242723D01*
X51000Y241936D01*
X54936D02*
X55723Y242723D01*
X57297D01*
X58084Y241936D01*
Y238787D01*
X57297Y238000D01*
X55723D01*
X54936Y238787D01*
Y241936D01*
X51000Y187500D02*
X52574D01*
X51787D01*
Y192223D01*
X51000Y191436D01*
X58084Y192223D02*
X54936D01*
Y189861D01*
X56510Y190649D01*
X57297D01*
X58084Y189861D01*
Y188287D01*
X57297Y187500D01*
X55723D01*
X54936Y188287D01*
X54149Y137500D02*
X51000D01*
X54149Y140649D01*
Y141436D01*
X53361Y142223D01*
X51787D01*
X51000Y141436D01*
X55723D02*
X56510Y142223D01*
X58084D01*
X58872Y141436D01*
Y138287D01*
X58084Y137500D01*
X56510D01*
X55723Y138287D01*
Y141436D01*
X54149Y87500D02*
X51000D01*
X54149Y90649D01*
Y91436D01*
X53361Y92223D01*
X51787D01*
X51000Y91436D01*
X58872Y92223D02*
X55723D01*
Y89862D01*
X57297Y90649D01*
X58084D01*
X58872Y89862D01*
Y88287D01*
X58084Y87500D01*
X56510D01*
X55723Y88287D01*
X51000Y41936D02*
X51787Y42723D01*
X53361D01*
X54149Y41936D01*
Y41149D01*
X53361Y40361D01*
X52574D01*
X53361D01*
X54149Y39574D01*
Y38787D01*
X53361Y38000D01*
X51787D01*
X51000Y38787D01*
X55723Y41936D02*
X56510Y42723D01*
X58084D01*
X58872Y41936D01*
Y38787D01*
X58084Y38000D01*
X56510D01*
X55723Y38787D01*
Y41936D01*
X56899Y5149D02*
X54537D01*
X53750Y4361D01*
Y2787D01*
X54537Y2000D01*
X56899D01*
X45500Y6723D02*
Y2000D01*
X47861D01*
X48649Y2787D01*
Y3574D01*
Y4361D01*
X47861Y5149D01*
X45500D01*
X38037D02*
X39611D01*
X40399Y4361D01*
Y2000D01*
X38037D01*
X37250Y2787D01*
X38037Y3574D01*
X40399D01*
X29000Y5149D02*
X32149D01*
X29000Y2000D01*
X32149D01*
X65149Y6723D02*
Y2000D01*
X62787D01*
X62000Y2787D01*
Y4361D01*
X62787Y5149D01*
X65149D01*
D16*
X43928Y346499D02*
Y344214D01*
X43785Y343786D01*
X43643Y343643D01*
X43357Y343500D01*
X43071D01*
X42786Y343643D01*
X42643Y343786D01*
X42500Y344214D01*
Y344500D01*
X44699Y345928D02*
X44985Y346071D01*
X45414Y346499D01*
Y343500D01*
M02*
