%FSLAX25Y25*%
%MOIN*%
G70*
G01*
G75*
G04 Layer_Physical_Order=2*
G04 Layer_Color=16711680*
%ADD10C,0.11811*%
%ADD11C,0.18110*%
%ADD12C,0.05906*%
%ADD13R,0.03937X0.03543*%
%ADD14C,0.01000*%
D10*
X98425Y175000D02*
D03*
Y0D02*
D03*
Y350000D02*
D03*
D11*
X0Y350000D02*
D03*
Y0D02*
D03*
D12*
X10000Y330000D02*
D03*
Y320000D02*
D03*
Y310000D02*
D03*
Y300000D02*
D03*
Y290000D02*
D03*
Y280000D02*
D03*
Y270000D02*
D03*
Y260000D02*
D03*
Y180000D02*
D03*
Y190000D02*
D03*
Y200000D02*
D03*
Y210000D02*
D03*
Y220000D02*
D03*
Y230000D02*
D03*
Y240000D02*
D03*
Y250000D02*
D03*
Y100000D02*
D03*
Y110000D02*
D03*
Y120000D02*
D03*
Y130000D02*
D03*
Y140000D02*
D03*
Y150000D02*
D03*
Y160000D02*
D03*
Y170000D02*
D03*
Y20000D02*
D03*
Y30000D02*
D03*
Y40000D02*
D03*
Y50000D02*
D03*
Y60000D02*
D03*
Y70000D02*
D03*
Y80000D02*
D03*
Y90000D02*
D03*
X20000D02*
D03*
Y80000D02*
D03*
Y70000D02*
D03*
Y60000D02*
D03*
Y50000D02*
D03*
Y40000D02*
D03*
Y30000D02*
D03*
Y20000D02*
D03*
Y170000D02*
D03*
Y160000D02*
D03*
Y150000D02*
D03*
Y140000D02*
D03*
Y130000D02*
D03*
Y120000D02*
D03*
Y110000D02*
D03*
Y100000D02*
D03*
Y250000D02*
D03*
Y240000D02*
D03*
Y230000D02*
D03*
Y220000D02*
D03*
Y210000D02*
D03*
Y200000D02*
D03*
Y190000D02*
D03*
Y180000D02*
D03*
Y260000D02*
D03*
Y270000D02*
D03*
Y280000D02*
D03*
Y290000D02*
D03*
Y300000D02*
D03*
Y310000D02*
D03*
Y320000D02*
D03*
Y330000D02*
D03*
X30000Y90000D02*
D03*
Y80000D02*
D03*
Y70000D02*
D03*
Y60000D02*
D03*
Y50000D02*
D03*
Y40000D02*
D03*
Y30000D02*
D03*
Y20000D02*
D03*
Y170000D02*
D03*
Y160000D02*
D03*
Y150000D02*
D03*
Y140000D02*
D03*
Y130000D02*
D03*
Y120000D02*
D03*
Y110000D02*
D03*
Y100000D02*
D03*
Y250000D02*
D03*
Y240000D02*
D03*
Y230000D02*
D03*
Y220000D02*
D03*
Y210000D02*
D03*
Y200000D02*
D03*
Y190000D02*
D03*
Y180000D02*
D03*
Y260000D02*
D03*
Y270000D02*
D03*
Y280000D02*
D03*
Y290000D02*
D03*
Y300000D02*
D03*
Y310000D02*
D03*
Y320000D02*
D03*
Y330000D02*
D03*
X0D02*
D03*
Y320000D02*
D03*
Y310000D02*
D03*
Y300000D02*
D03*
Y290000D02*
D03*
Y280000D02*
D03*
Y270000D02*
D03*
Y260000D02*
D03*
Y180000D02*
D03*
Y190000D02*
D03*
Y200000D02*
D03*
Y210000D02*
D03*
Y220000D02*
D03*
Y230000D02*
D03*
Y240000D02*
D03*
Y250000D02*
D03*
Y100000D02*
D03*
Y110000D02*
D03*
Y120000D02*
D03*
Y130000D02*
D03*
Y140000D02*
D03*
Y150000D02*
D03*
Y160000D02*
D03*
Y170000D02*
D03*
Y20000D02*
D03*
Y30000D02*
D03*
Y40000D02*
D03*
Y50000D02*
D03*
Y60000D02*
D03*
Y70000D02*
D03*
Y80000D02*
D03*
Y90000D02*
D03*
X40000Y330000D02*
D03*
Y320000D02*
D03*
Y310000D02*
D03*
Y300000D02*
D03*
Y290000D02*
D03*
Y280000D02*
D03*
Y270000D02*
D03*
Y260000D02*
D03*
Y180000D02*
D03*
Y190000D02*
D03*
Y200000D02*
D03*
Y210000D02*
D03*
Y220000D02*
D03*
Y230000D02*
D03*
Y240000D02*
D03*
Y250000D02*
D03*
Y100000D02*
D03*
Y110000D02*
D03*
Y120000D02*
D03*
Y130000D02*
D03*
Y140000D02*
D03*
Y150000D02*
D03*
Y160000D02*
D03*
Y170000D02*
D03*
Y20000D02*
D03*
Y30000D02*
D03*
Y40000D02*
D03*
Y50000D02*
D03*
Y60000D02*
D03*
Y70000D02*
D03*
Y80000D02*
D03*
Y90000D02*
D03*
D13*
X58500Y47150D02*
D03*
Y40850D02*
D03*
Y79650D02*
D03*
Y73350D02*
D03*
Y93350D02*
D03*
Y99650D02*
D03*
Y117150D02*
D03*
Y110850D02*
D03*
Y123350D02*
D03*
Y129650D02*
D03*
Y147150D02*
D03*
Y140850D02*
D03*
Y153350D02*
D03*
Y159650D02*
D03*
Y177150D02*
D03*
Y170850D02*
D03*
Y183350D02*
D03*
Y189650D02*
D03*
Y207150D02*
D03*
Y200850D02*
D03*
Y213350D02*
D03*
Y219650D02*
D03*
Y237150D02*
D03*
Y230850D02*
D03*
Y243350D02*
D03*
Y249650D02*
D03*
Y267150D02*
D03*
Y260850D02*
D03*
Y273350D02*
D03*
Y279650D02*
D03*
Y297150D02*
D03*
Y290850D02*
D03*
Y303350D02*
D03*
Y309650D02*
D03*
Y327150D02*
D03*
Y320850D02*
D03*
D14*
X25000Y45000D02*
X30000Y40000D01*
X15000Y45000D02*
X25000D01*
X10000Y40000D02*
X15000Y45000D01*
X57650Y40000D02*
X58500Y40850D01*
X40000Y40000D02*
X57650D01*
X58500Y47150D02*
Y63500D01*
X52000Y70000D02*
X58500Y63500D01*
X40000Y70000D02*
X52000D01*
X35000Y55000D02*
X40000Y50000D01*
X35000Y55000D02*
Y72500D01*
X37000Y74500D01*
X57350D01*
X58500Y73350D01*
X40000Y80000D02*
X58150D01*
X10000Y110000D02*
X15000Y115000D01*
X45500D01*
X47650Y117150D01*
X58500D01*
X40000Y110000D02*
X57650D01*
X58500Y110850D01*
X10000Y100000D02*
X15000Y95000D01*
X46000D01*
X47650Y93350D01*
X58500D01*
X40000Y100000D02*
X58150D01*
X58500Y99650D01*
X10000Y140000D02*
X15000Y145000D01*
X45500D01*
X47650Y147150D01*
X58500D01*
X40000Y140000D02*
X57650D01*
X58500Y140850D01*
X10000Y130000D02*
X15000Y125000D01*
X46000D01*
X47650Y123350D01*
X58500D01*
X40000Y130000D02*
X58150D01*
X58500Y129650D01*
X10000Y170000D02*
X15000Y175000D01*
X45500D01*
X47650Y177150D01*
X58500D01*
X40000Y170000D02*
X57650D01*
X58500Y170850D01*
X10000Y160000D02*
X15000Y155000D01*
X46000D01*
X47650Y153350D01*
X58500D01*
X40000Y160000D02*
X58150D01*
X58500Y159650D01*
X10000Y290000D02*
X15000Y295000D01*
X45500D01*
X47650Y297150D01*
X58500D01*
X40000Y290000D02*
X57650D01*
X58500Y290850D01*
X10000Y280000D02*
X15000Y275000D01*
X46000D01*
X47650Y273350D01*
X58500D01*
X40000Y280000D02*
X58150D01*
X58500Y279650D01*
X10000Y260000D02*
X15000Y265000D01*
X45500D01*
X47650Y267150D01*
X58500D01*
X40000Y260000D02*
X57650D01*
X58500Y260850D01*
X10000Y250000D02*
X15000Y245000D01*
X46000D01*
X47650Y243350D01*
X58500D01*
X40000Y250000D02*
X58150D01*
X58500Y249650D01*
X10000Y230000D02*
X15000Y235000D01*
X45500D01*
X47650Y237150D01*
X58500D01*
X40000Y230000D02*
X57650D01*
X58500Y230850D01*
X10000Y220000D02*
X15000Y215000D01*
X46000D01*
X47650Y213350D01*
X58500D01*
X40000Y220000D02*
X58150D01*
X58500Y219650D01*
X10000Y200000D02*
X15000Y205000D01*
X45500D01*
X47650Y207150D01*
X58500D01*
X40000Y200000D02*
X57650D01*
X58500Y200850D01*
X10000Y190000D02*
X15000Y185000D01*
X46000D01*
X47650Y183350D01*
X58500D01*
X40000Y190000D02*
X58150D01*
X58500Y189650D01*
X58150Y310000D02*
X58500Y309650D01*
X40000Y310000D02*
X58150D01*
X47650Y303350D02*
X58500D01*
X46000Y305000D02*
X47650Y303350D01*
X15000Y305000D02*
X46000D01*
X10000Y310000D02*
X15000Y305000D01*
X57650Y320000D02*
X58500Y320850D01*
X40000Y320000D02*
X57650D01*
X47650Y327150D02*
X58500D01*
X45500Y325000D02*
X47650Y327150D01*
X15000Y325000D02*
X45500D01*
X10000Y320000D02*
X15000Y325000D01*
X10000Y80000D02*
X15000Y85000D01*
X25000D01*
X30000Y90000D01*
X25000Y75000D02*
X30000Y80000D01*
X15000Y75000D02*
X25000D01*
X10000Y70000D02*
X15000Y75000D01*
X10000Y50000D02*
X15000Y55000D01*
X25000D01*
X30000Y50000D01*
M02*
