M48
;Layer_Color=9474304
;FILE_FORMAT=2:5
INCH,LZ
;TYPE=PLATED
T1F00S00C0.03937
T2F00S00C0.11024
T3F00S00C0.11811
%
T01
X0Y002
Y003
Y004
Y005
Y006
Y007
Y008
Y009
Y01
Y011
Y012
Y013
Y014
Y015
X001
Y014
Y013
X002
Y014
Y015
X003
Y014
Y013
X004
Y014
Y015
Y012
X003
Y011
Y01
X004
Y011
X002
X001
Y01
X002
Y009
Y008
X001
Y009
Y007
X002
Y006
Y005
Y004
X001
Y005
Y006
X003
Y005
Y004
X004
Y005
Y006
Y007
X003
Y008
Y009
X004
Y008
Y003
X003
Y002
X004
X002
X001
Y003
X002
Y012
X001
Y016
Y017
Y018
X002
Y017
Y016
X003
Y017
Y018
X004
Y017
Y016
Y019
X003
Y02
Y021
X004
Y02
X002
X001
Y019
X002
Y021
X001
Y022
Y023
X002
Y022
X003
Y023
X004
Y022
Y024
X003
Y025
Y026
X004
Y025
X002
X001
Y026
X002
Y027
Y028
X001
Y027
Y029
Y03
Y031
X002
Y03
Y029
X003
Y03
Y031
X004
Y03
Y029
Y028
Y027
X003
Y028
X002Y024
X001
X0
Y025
Y026
Y027
Y028
Y029
Y03
Y031
Y023
Y022
Y021
Y02
Y019
Y018
Y017
Y016
Y032
Y033
X001
X002
Y032
X001
X003
X004
Y033
X003
T02
X0Y0
Y035
T03
X0098425Y0
Y0175
Y035
M30
